<svg width="66" height="66" viewBox="0 0 66 66" fill="none" xmlns="http://www.w3.org/2000/svg">
<circle cx="33" cy="33" r="32.5" fill="white" stroke="#E4E2DD"/>
<path d="M33.5 24H28.8C27.1198 24 26.2798 24 25.638 24.327C25.0735 24.6146 24.6146 25.0735 24.327 25.638C24 26.2798 24 27.1198 24 28.8V37.2C24 38.8802 24 39.7202 24.327 40.362C24.6146 40.9265 25.0735 41.3854 25.638 41.673C26.2798 42 27.1198 42 28.8 42H38C38.93 42 39.395 42 39.7765 41.8978C40.8117 41.6204 41.6204 40.8117 41.8978 39.7765C42 39.395 42 38.93 42 38M40 29V23M37 26H43M31.5 29.5C31.5 30.6046 30.6046 31.5 29.5 31.5C28.3954 31.5 27.5 30.6046 27.5 29.5C27.5 28.3954 28.3954 27.5 29.5 27.5C30.6046 27.5 31.5 28.3954 31.5 29.5ZM35.99 32.9181L27.5311 40.608C27.0554 41.0406 26.8175 41.2568 26.7964 41.4442C26.7782 41.6066 26.8405 41.7676 26.9632 41.8755C27.1048 42 27.4263 42 28.0693 42H37.456C38.8951 42 39.6147 42 40.1799 41.7582C40.8894 41.4547 41.4547 40.8894 41.7582 40.1799C42 39.6147 42 38.8951 42 37.456C42 36.9717 42 36.7296 41.9471 36.5042C41.8805 36.2208 41.753 35.9554 41.5733 35.7264C41.4303 35.5442 41.2412 35.3929 40.8631 35.0905L38.0658 32.8527C37.6874 32.5499 37.4982 32.3985 37.2898 32.3451C37.1061 32.298 36.9129 32.3041 36.7325 32.3627C36.5279 32.4291 36.3486 32.5921 35.99 32.9181Z" stroke="#414651" stroke-width="1.5" stroke-linecap="round" stroke-linejoin="round"/>
</svg>
