<svg width="14" height="18" viewBox="0 0 14 18" fill="none" xmlns="http://www.w3.org/2000/svg">
<path fill-rule="evenodd" clip-rule="evenodd" d="M3.9375 0.875C3.9375 0.642936 4.02969 0.420376 4.19378 0.256282C4.35788 0.0921872 4.58044 0 4.8125 0H9.1875C9.41956 0 9.64212 0.0921872 9.80622 0.256282C9.97031 0.420376 10.0625 0.642936 10.0625 0.875H13.5625V1.75H12.6875V16.625H13.5625C13.6785 16.625 13.7898 16.6711 13.8719 16.7531C13.9539 16.8352 14 16.9465 14 17.0625C14 17.1785 13.9539 17.2898 13.8719 17.3719C13.7898 17.4539 13.6785 17.5 13.5625 17.5H0.4375C0.321468 17.5 0.210188 17.4539 0.128141 17.3719C0.0460937 17.2898 0 17.1785 0 17.0625C0 16.9465 0.0460937 16.8352 0.128141 16.7531C0.210188 16.6711 0.321468 16.625 0.4375 16.625H1.3125V1.75H0.875V0.875H3.9375ZM3.9375 3.0625H2.1875V16.625H3.9375V14.875H3.5V14H10.5V14.875H10.0625V16.625H11.8125V3.0625H10.0625V5.25C10.0625 5.48206 9.97031 5.70462 9.80622 5.86872C9.64212 6.03281 9.41956 6.125 9.1875 6.125H4.8125C4.58044 6.125 4.35788 6.03281 4.19378 5.86872C4.02969 5.70462 3.9375 5.48206 3.9375 5.25V3.0625ZM3.9375 2.1875H2.1875V1.75H3.9375V2.1875ZM4.8125 0.875H9.1875V5.25H4.8125V0.875ZM6.5625 16.625H4.8125V14.875H6.5625V16.625ZM9.1875 16.625V14.875H7.4375V16.625H9.1875ZM11.8125 2.1875V1.75H10.0625V2.1875H11.8125Z" fill="#FFFDFC"/>
</svg>
