<svg width="16" height="16" viewBox="0 0 16 16" fill="none" xmlns="http://www.w3.org/2000/svg">
<path d="M14.25 0.5H1.75C1.41848 0.5 1.10054 0.631696 0.866116 0.866116C0.631696 1.10054 0.5 1.41848 0.5 1.75V14.25C0.5 14.5815 0.631696 14.8995 0.866116 15.1339C1.10054 15.3683 1.41848 15.5 1.75 15.5H14.25C14.5815 15.5 14.8995 15.3683 15.1339 15.1339C15.3683 14.8995 15.5 14.5815 15.5 14.25V1.75C15.5 1.41848 15.3683 1.10054 15.1339 0.866116C14.8995 0.631696 14.5815 0.5 14.25 0.5ZM5.5 7.375C5.5 6.88055 5.64662 6.3972 5.92133 5.98607C6.19603 5.57495 6.58648 5.25452 7.04329 5.0653C7.50011 4.87608 8.00277 4.82657 8.48773 4.92304C8.97268 5.0195 9.41814 5.2576 9.76777 5.60723C10.1174 5.95686 10.3555 6.40232 10.452 6.88727C10.5484 7.37223 10.4989 7.87489 10.3097 8.33171C10.1205 8.78852 9.80005 9.17897 9.38893 9.45367C8.9778 9.72838 8.49445 9.875 8 9.875C7.33696 9.875 6.70107 9.61161 6.23223 9.14277C5.76339 8.67393 5.5 8.03804 5.5 7.375ZM3.36484 14.25C3.68467 13.4626 4.19886 12.7691 4.85938 12.2344C5.74868 11.5165 6.85709 11.1249 8 11.1249C9.14291 11.1249 10.2513 11.5165 11.1406 12.2344C11.8011 12.7691 12.3153 13.4626 12.6352 14.25H3.36484ZM14.25 14.25H13.9633C13.6854 13.3654 13.2139 12.5538 12.5831 11.8741C11.9522 11.1945 11.1779 10.664 10.3164 10.3211C10.9297 9.83934 11.3776 9.17834 11.5976 8.43011C11.8177 7.68189 11.799 6.88367 11.5441 6.14658C11.2892 5.40949 10.8109 4.7702 10.1757 4.31772C9.54042 3.86523 8.77991 3.62207 8 3.62207C7.22009 3.62207 6.45958 3.86523 5.82435 4.31772C5.18912 4.7702 4.71077 5.40949 4.4559 6.14658C4.20102 6.88367 4.18231 7.68189 4.40236 8.43011C4.6224 9.17834 5.07027 9.83934 5.68359 10.3211C4.82207 10.664 4.04776 11.1945 3.41693 11.8741C2.78611 12.5538 2.31462 13.3654 2.03672 14.25H1.75V1.75H14.25V14.25Z" fill="#757D83"/>
</svg>
