<svg width="22" height="20" viewBox="0 0 22 20" fill="none" xmlns="http://www.w3.org/2000/svg">
<path d="M8.07923 0.787497C10.0441 0.737503 11.9541 0.737499 13.9191 0.787497C17.157 0.869496 18.9413 0.915255 20.2843 2.25625C21.6291 3.61122 21.6655 5.3485 21.7325 8.50136C21.7535 9.50833 21.7535 10.4866 21.7325 11.4936C21.6656 14.6461 21.6288 16.3819 20.2872 17.7348C18.9422 19.0788 17.158 19.1244 13.92 19.2064C12.9381 19.2314 11.9691 19.2445 11.0001 19.2445C10.0312 19.2445 9.06212 19.2314 8.0802 19.2064C4.84234 19.1244 3.05795 19.0785 1.71497 17.7377C0.370009 16.3827 0.332745 14.6454 0.265749 11.4926C0.24475 10.4856 0.244751 9.50735 0.265749 8.50039C0.332749 5.34739 0.370038 3.6112 1.71204 2.2582C3.05703 0.914271 4.84128 0.869495 8.07923 0.787497ZM13.881 2.28554C11.9421 2.23555 10.0572 2.23555 8.11731 2.28554C5.07934 2.36254 3.69256 2.39684 2.77356 3.31582C1.85556 4.24182 1.82677 5.58664 1.76477 8.53164C1.74378 9.5165 1.74378 10.4745 1.76477 11.4603C1.82677 14.4053 1.85648 15.7502 2.77747 16.6771C3.69447 17.593 5.08048 17.6294 8.11829 17.7064C10.0572 17.7564 11.9421 17.7564 13.882 17.7064C16.9199 17.6294 18.3057 17.5941 19.2247 16.6752C20.1427 15.7492 20.1715 14.4053 20.2335 11.4603C20.2545 10.4755 20.2545 9.5175 20.2335 8.53164C20.1715 5.58664 20.1428 4.24086 19.2218 3.31386C18.3048 2.39817 16.9186 2.36253 13.881 2.28554ZM5.35462 6.11074C5.56562 5.75474 6.02596 5.63509 6.38196 5.84609L9.32337 7.58633C10.7954 8.45333 11.2039 8.45333 12.6779 7.58633L15.6183 5.84707C15.9753 5.63607 16.4356 5.75472 16.6456 6.11172C16.8564 6.46859 16.7387 6.92802 16.382 7.13808L13.4396 8.87832C12.4588 9.45619 11.73 9.74442 11.0001 9.74453C10.2711 9.74453 9.54165 9.45532 8.56165 8.87832L5.61829 7.13711C5.26276 6.92603 5.14393 6.46654 5.35462 6.11074Z" fill="#161616"/>
</svg>
