<svg width="18" height="18" viewBox="0 0 18 18" fill="none" xmlns="http://www.w3.org/2000/svg">
<path fill-rule="evenodd" clip-rule="evenodd" d="M0.875 9C0.875 13.4866 4.51159 17.1239 8.99796 17.125H8.99999C13.4873 17.125 17.125 13.4873 17.125 9C17.125 4.51269 13.4873 0.875 9 0.875C4.51269 0.875 0.875 4.51269 0.875 9ZM9 2.125C5.20304 2.125 2.125 5.20304 2.125 9C2.125 12.5863 4.87093 15.5312 8.37499 15.847V10.875H6.5C6.15482 10.875 5.875 10.5952 5.875 10.25C5.875 9.90482 6.15482 9.625 6.5 9.625H8.37499V7.74282C8.37849 7.43736 8.43853 7.09443 8.56254 6.79328C8.68782 6.48902 8.87211 6.21259 9.10477 5.97993C9.33743 5.74726 9.61387 5.56297 9.91812 5.43769C10.2219 5.31259 10.5475 5.2488 10.8761 5.25H12.1248C12.47 5.25 12.7498 5.52982 12.7498 5.875C12.7498 6.22018 12.47 6.5 12.1248 6.5H10.8722C10.7082 6.49931 10.5457 6.5311 10.3941 6.59354C10.2424 6.65599 10.1046 6.74784 9.98865 6.86381C9.87269 6.97978 9.78083 7.11756 9.71839 7.26921C9.66246 7.40503 9.62732 7.58715 9.62499 7.75394V9.625H11.5C11.8452 9.625 12.125 9.90482 12.125 10.25C12.125 10.5952 11.8452 10.875 11.5 10.875H9.62499V15.847C13.1291 15.5312 15.875 12.5863 15.875 9C15.875 5.20304 12.797 2.125 9 2.125Z" fill="#B8B1A9"/>
</svg>
