<svg width="56" height="56" viewBox="0 0 56 56" fill="none" xmlns="http://www.w3.org/2000/svg">
<rect x="4" y="4" width="48" height="48" rx="24" fill="#D1FADF"/>
<rect x="4" y="4" width="48" height="48" rx="24" stroke="#ECFDF3" stroke-width="8"/>
<path fill-rule="evenodd" clip-rule="evenodd" d="M26.1073 20.4267C25.833 20.6642 25.5044 20.9143 25.1287 21.0706C24.7501 21.2281 24.3411 21.2817 23.9812 21.3054C23.7455 21.3209 23.4825 21.3251 23.2428 21.3289C23.1291 21.3307 23.0206 21.3324 22.9227 21.3352C22.2018 21.356 21.8348 21.4446 21.6397 21.6397C21.4457 21.8337 21.3606 22.1898 21.3423 22.9063C21.34 22.998 21.3386 23.0987 21.3371 23.2042C21.3337 23.4491 21.33 23.7201 21.3132 23.9671C21.2883 24.3323 21.2316 24.7443 21.0699 25.1303C20.9099 25.5124 20.6597 25.8441 20.4195 26.1223C20.2557 26.3121 20.0667 26.5094 19.8951 26.6885C19.8222 26.7647 19.7523 26.8375 19.6889 26.9051C19.4572 27.1523 19.2782 27.3621 19.1564 27.5598C19.0376 27.7525 19 27.8913 19 28C19 28.1077 19.038 28.2488 19.1594 28.4461C19.2832 28.6473 19.4646 28.8611 19.6971 29.1101C19.7635 29.1813 19.8372 29.2584 19.9142 29.339C20.0832 29.5159 20.268 29.7094 20.4267 29.8927C20.6642 30.167 20.9143 30.4956 21.0706 30.8713C21.2281 31.2499 21.2817 31.6589 21.3054 32.0188C21.3209 32.2545 21.3251 32.5175 21.3289 32.7572C21.3307 32.8709 21.3324 32.9794 21.3352 33.0773C21.356 33.7982 21.4446 34.1652 21.6397 34.3603C21.8337 34.5543 22.1898 34.6394 22.9063 34.6577C22.998 34.66 23.0987 34.6614 23.2043 34.6629C23.4491 34.6663 23.7201 34.67 23.9671 34.6868C24.3323 34.7117 24.7443 34.7684 25.1303 34.9301C25.5124 35.0901 25.8441 35.3403 26.1223 35.5805C26.3121 35.7443 26.5094 35.9333 26.6884 36.1048C26.7646 36.1778 26.8375 36.2477 26.9051 36.3111C27.1523 36.5428 27.3621 36.7218 27.5598 36.8436C27.7525 36.9624 27.8913 37 28 37C28.1077 37 28.2488 36.962 28.4461 36.8406C28.6473 36.7168 28.8611 36.5354 29.1101 36.3029C29.1813 36.2365 29.2584 36.1628 29.339 36.0858C29.5159 35.9168 29.7094 35.732 29.8927 35.5733C30.167 35.3358 30.4956 35.0857 30.8713 34.9294C31.2499 34.7719 31.6589 34.7183 32.0188 34.6946C32.2545 34.6791 32.5175 34.6749 32.7572 34.6711C32.8709 34.6693 32.9794 34.6676 33.0773 34.6648C33.7982 34.644 34.1652 34.5554 34.3603 34.3603C34.5543 34.1663 34.6394 33.8102 34.6577 33.0937C34.66 33.002 34.6614 32.9013 34.6629 32.7957C34.6663 32.5509 34.67 32.2799 34.6868 32.0329C34.7117 31.6677 34.7684 31.2557 34.9301 30.8697C35.0901 30.4876 35.3403 30.1559 35.5805 29.8777C35.7443 29.6879 35.9333 29.4906 36.1048 29.3116C36.1778 29.2354 36.2477 29.1625 36.3111 29.0949C36.5428 28.8477 36.7218 28.6379 36.8436 28.4402C36.9624 28.2475 37 28.1087 37 28C37 27.8923 36.962 27.7512 36.8406 27.5539C36.7168 27.3527 36.5354 27.1389 36.3029 26.8899C36.2365 26.8187 36.1628 26.7416 36.0858 26.661C35.9168 26.4841 35.732 26.2906 35.5733 26.1073C35.3358 25.833 35.0857 25.5044 34.9294 25.1287C34.7719 24.7501 34.7183 24.3411 34.6946 23.9812C34.6791 23.7455 34.6749 23.4825 34.6711 23.2428C34.6693 23.1291 34.6676 23.0206 34.6648 22.9227C34.644 22.2018 34.5554 21.8348 34.3603 21.6397C34.1663 21.4457 33.8102 21.3606 33.0937 21.3423C33.002 21.34 32.9013 21.3386 32.7958 21.3371C32.5509 21.3337 32.2799 21.33 32.0329 21.3132C31.6677 21.2883 31.2557 21.2316 30.8697 21.0699C30.4876 20.9099 30.1559 20.6597 29.8777 20.4195C29.6879 20.2557 29.4906 20.0667 29.3115 19.8951C29.2353 19.8222 29.1625 19.7523 29.0949 19.6889C28.8477 19.4572 28.6379 19.2782 28.4402 19.1564C28.2475 19.0376 28.1087 19 28 19C27.8923 19 27.7512 19.038 27.5539 19.1594C27.3527 19.2832 27.1389 19.4646 26.8899 19.6971C26.8187 19.7635 26.7416 19.8372 26.661 19.9142C26.4841 20.0832 26.2906 20.268 26.1073 20.4267ZM26.768 17.8818C27.1074 17.673 27.5218 17.5 28 17.5C28.4772 17.5 28.8892 17.671 29.2274 17.8795C29.5606 18.0849 29.8617 18.3517 30.1208 18.5946C30.2151 18.6831 30.3021 18.7665 30.3853 18.8463C30.549 19.0032 30.6978 19.1459 30.8579 19.2841C31.0918 19.486 31.2827 19.6167 31.4491 19.6863C31.6115 19.7543 31.8323 19.796 32.1347 19.8166C32.3413 19.8307 32.5415 19.8333 32.7633 19.8363C32.879 19.8378 33.0006 19.8395 33.132 19.8428C33.7913 19.8597 34.7525 19.9105 35.421 20.579C36.0884 21.2465 36.145 22.2154 36.1641 22.8796C36.1682 23.0215 36.1702 23.1514 36.172 23.2745C36.1753 23.4884 36.1782 23.6818 36.1914 23.8828C36.2114 24.187 36.2515 24.4015 36.3144 24.5526C36.3784 24.7065 36.5045 24.8912 36.7073 25.1255C36.8427 25.2819 36.9818 25.4274 37.1349 25.5874C37.2184 25.6746 37.306 25.7663 37.3994 25.8663C37.6439 26.1283 37.9119 26.4325 38.1182 26.768C38.327 27.1074 38.5 27.5218 38.5 28C38.5 28.4772 38.329 28.8892 38.1205 29.2274C37.9151 29.5606 37.6483 29.8617 37.4054 30.1208C37.3169 30.2151 37.2335 30.3021 37.1537 30.3853C36.9968 30.549 36.8541 30.6978 36.7159 30.8579C36.514 31.0918 36.3833 31.2827 36.3137 31.4491C36.2457 31.6115 36.204 31.8323 36.1834 32.1347C36.1693 32.3413 36.1667 32.5415 36.1637 32.7633C36.1622 32.879 36.1605 33.0006 36.1572 33.132C36.1403 33.7913 36.0895 34.7525 35.421 35.421C34.7535 36.0884 33.7846 36.145 33.1204 36.1641C32.9785 36.1682 32.8486 36.1702 32.7255 36.172C32.5116 36.1753 32.3182 36.1782 32.1172 36.1914C31.813 36.2114 31.5985 36.2515 31.4474 36.3144C31.2935 36.3784 31.1088 36.5045 30.8745 36.7073C30.7181 36.8427 30.5726 36.9818 30.4126 37.1349C30.3254 37.2184 30.2337 37.306 30.1337 37.3994C29.8717 37.6439 29.5675 37.9119 29.232 38.1182C28.8926 38.327 28.4782 38.5 28 38.5C27.5228 38.5 27.1108 38.329 26.7726 38.1205C26.4394 37.9151 26.1383 37.6483 25.8792 37.4054C25.7849 37.3169 25.6979 37.2335 25.6147 37.1537C25.451 36.9968 25.3022 36.8541 25.1421 36.7159C24.9082 36.514 24.7173 36.3833 24.5509 36.3137C24.3885 36.2457 24.1677 36.204 23.8653 36.1834C23.6587 36.1693 23.4585 36.1667 23.2367 36.1637C23.121 36.1622 22.9994 36.1605 22.868 36.1572C22.2087 36.1403 21.2475 36.0895 20.579 35.421C19.9116 34.7535 19.855 33.7846 19.8359 33.1204C19.8318 32.9785 19.8298 32.8486 19.828 32.7255C19.8247 32.5116 19.8218 32.3182 19.8086 32.1172C19.7886 31.813 19.7485 31.5985 19.6856 31.4474C19.6216 31.2935 19.4955 31.1088 19.2927 30.8745C19.1573 30.7181 19.0182 30.5726 18.8651 30.4126C18.7816 30.3254 18.694 30.2337 18.6006 30.1337C18.3561 29.8717 18.0881 29.5675 17.8818 29.232C17.673 28.8926 17.5 28.4782 17.5 28C17.5 27.5228 17.671 27.1108 17.8795 26.7726C18.0849 26.4394 18.3517 26.1383 18.5946 25.8792C18.6831 25.7849 18.7665 25.6979 18.8463 25.6147C19.0032 25.451 19.1459 25.3022 19.2841 25.1421C19.486 24.9082 19.6167 24.7173 19.6863 24.5509C19.7543 24.3885 19.796 24.1677 19.8166 23.8653C19.8307 23.6587 19.8333 23.4585 19.8363 23.2367C19.8378 23.121 19.8395 22.9994 19.8428 22.868C19.8597 22.2087 19.9105 21.2475 20.579 20.579C21.2465 19.9116 22.2154 19.855 22.8796 19.8359C23.0215 19.8318 23.1514 19.8298 23.2745 19.828C23.4884 19.8247 23.6818 19.8218 23.8828 19.8086C24.187 19.7886 24.4015 19.7485 24.5526 19.6856C24.7065 19.6216 24.8912 19.4955 25.1255 19.2927C25.2819 19.1573 25.4274 19.0182 25.5874 18.8651C25.6746 18.7816 25.7663 18.694 25.8663 18.6006C26.1283 18.3561 26.4325 18.0881 26.768 17.8818Z" fill="#00B48D"/>
<path fill-rule="evenodd" clip-rule="evenodd" d="M32.6677 25.2323C32.9536 25.532 32.9424 26.0067 32.6427 26.2927L27.1396 31.5427C26.8496 31.8193 26.3934 31.8191 26.1037 31.5422L23.3568 28.9172C23.0574 28.631 23.0466 28.1563 23.3328 27.8568C23.619 27.5574 24.0937 27.5466 24.3932 27.8328L26.6223 29.963L31.6073 25.2073C31.907 24.9214 32.3817 24.9326 32.6677 25.2323Z" fill="#00B48D"/>
</svg>
