<svg width="36" height="36" viewBox="0 0 36 36" fill="none" xmlns="http://www.w3.org/2000/svg">
<rect width="36" height="36" rx="18" fill="#E1EDFB"/>
<path fill-rule="evenodd" clip-rule="evenodd" d="M17.688 10.782C17.877 10.656 18.1231 10.656 18.3121 10.782L25.0621 15.282C25.2185 15.3863 25.3125 15.5619 25.3125 15.75V23.0625C25.3125 23.3609 25.194 23.647 24.983 23.858C24.7721 24.069 24.4859 24.1875 24.1875 24.1875H11.8125C11.5142 24.1875 11.228 24.069 11.017 23.858C10.8061 23.647 10.6875 23.3609 10.6875 23.0625V15.75C10.6875 15.5619 10.7815 15.3863 10.938 15.282L17.688 10.782ZM11.8125 16.051V23.0625H24.1875V16.051L18 11.926L11.8125 16.051Z" fill="#414651"/>
<path fill-rule="evenodd" clip-rule="evenodd" d="M17.229 19.3629C17.4082 19.6166 17.3479 19.9676 17.0942 20.1469L11.7504 23.9227C11.4967 24.1019 11.1457 24.0416 10.9664 23.7879C10.7872 23.5342 10.8475 23.1832 11.1012 23.0039L16.445 19.2281C16.6987 19.0488 17.0497 19.1092 17.229 19.3629Z" fill="#414651"/>
<path fill-rule="evenodd" clip-rule="evenodd" d="M18.7711 19.3629C18.9504 19.1092 19.3014 19.0488 19.5551 19.2281L24.8989 23.0039C25.1526 23.1832 25.2129 23.5342 25.0337 23.7879C24.8544 24.0416 24.5034 24.1019 24.2497 23.9227L18.9059 20.1469C18.6522 19.9676 18.5918 19.6166 18.7711 19.3629Z" fill="#414651"/>
<path fill-rule="evenodd" clip-rule="evenodd" d="M10.7921 15.4233C10.9725 15.1704 11.3238 15.1117 11.5767 15.2921L16.9496 19.125H19.0504L24.4234 15.2921C24.6763 15.1117 25.0276 15.1704 25.208 15.4233C25.3884 15.6762 25.3296 16.0275 25.0767 16.2079L19.5572 20.1454C19.4618 20.2134 19.3476 20.25 19.2305 20.25H16.7696C16.6525 20.25 16.5383 20.2134 16.4429 20.1454L10.9234 16.2079C10.6705 16.0275 10.6117 15.6762 10.7921 15.4233Z" fill="#414651"/>
</svg>
