<svg width="15" height="15" viewBox="0 0 15 15" fill="none" xmlns="http://www.w3.org/2000/svg">
<path fill-rule="evenodd" clip-rule="evenodd" d="M10.9185 1.54354C11.1016 1.36049 11.3984 1.36049 11.5815 1.54354L13.4565 3.41854C13.6395 3.6016 13.6395 3.8984 13.4565 4.08146L7.83146 9.70646C7.74355 9.79436 7.62432 9.84375 7.5 9.84375H5.625C5.36612 9.84375 5.15625 9.63388 5.15625 9.375V7.5C5.15625 7.37568 5.20564 7.25645 5.29354 7.16854L10.9185 1.54354ZM6.09375 7.69416V8.90625H7.30584L12.4621 3.75L11.25 2.53791L6.09375 7.69416Z" fill="#414651"/>
<path fill-rule="evenodd" clip-rule="evenodd" d="M9.51229 2.94979C9.69535 2.76674 9.99215 2.76674 10.1752 2.94979L12.0502 4.82479C12.2333 5.00785 12.2333 5.30465 12.0502 5.48771C11.8671 5.67076 11.5704 5.67076 11.3873 5.48771L9.51229 3.61271C9.32924 3.42965 9.32924 3.13285 9.51229 2.94979Z" fill="#414651"/>
<path fill-rule="evenodd" clip-rule="evenodd" d="M2.14959 2.14959C2.3254 1.97377 2.56386 1.875 2.8125 1.875H7.96875C8.22763 1.875 8.4375 2.08487 8.4375 2.34375C8.4375 2.60263 8.22763 2.8125 7.96875 2.8125L2.8125 2.8125L2.8125 12.1875H12.1875V7.03125C12.1875 6.77237 12.3974 6.5625 12.6562 6.5625C12.9151 6.5625 13.125 6.77237 13.125 7.03125V12.1875C13.125 12.4361 13.0262 12.6746 12.8504 12.8504C12.6746 13.0262 12.4361 13.125 12.1875 13.125H2.8125C2.56386 13.125 2.3254 13.0262 2.14959 12.8504C1.97377 12.6746 1.875 12.4361 1.875 12.1875V2.8125C1.875 2.56386 1.97377 2.3254 2.14959 2.14959Z" fill="#414651"/>
</svg>
