<svg width="14" height="15" viewBox="0 0 14 15" fill="none" xmlns="http://www.w3.org/2000/svg">
<path fill-rule="evenodd" clip-rule="evenodd" d="M4.50314 8.50314C4.674 8.33229 4.951 8.33229 5.12186 8.50314L7 10.3813L8.87814 8.50314C9.049 8.33229 9.326 8.33229 9.49686 8.50314C9.66771 8.674 9.66771 8.951 9.49686 9.12186L7.30936 11.3094C7.1385 11.4802 6.8615 11.4802 6.69064 11.3094L4.50314 9.12186C4.33229 8.951 4.33229 8.674 4.50314 8.50314Z" fill="#B8B1A9"/>
<path fill-rule="evenodd" clip-rule="evenodd" d="M4.50314 6.49686C4.674 6.66771 4.951 6.66771 5.12186 6.49686L7 4.61872L8.87814 6.49686C9.049 6.66771 9.326 6.66771 9.49686 6.49686C9.66771 6.326 9.66771 6.049 9.49686 5.87814L7.30936 3.69064C7.1385 3.51979 6.8615 3.51979 6.69064 3.69064L4.50314 5.87814C4.33229 6.049 4.33229 6.326 4.50314 6.49686Z" fill="#B8B1A9"/>
</svg>
