<svg width="36" height="36" viewBox="0 0 36 36" fill="none" xmlns="http://www.w3.org/2000/svg">
<rect width="36" height="36" rx="18" fill="#E1EDFB"/>
<path fill-rule="evenodd" clip-rule="evenodd" d="M14.8282 11.8436C14.808 11.8423 14.7732 11.8433 14.719 11.8525C14.0839 11.9598 13.5036 12.2822 13.0766 12.7673C12.7291 13.1621 12.5014 13.6438 12.4147 14.1563C12.3639 14.4563 12.3691 14.7829 12.3905 15.1493C12.5186 17.345 13.4475 19.425 15.0113 20.9888C16.6366 22.6142 18.8196 23.5536 21.1105 23.621C21.3789 23.6289 21.6212 23.6231 21.8438 23.5854C22.3563 23.4987 22.838 23.271 23.2328 22.9235C23.7448 22.4727 24.0756 21.8513 24.1635 21.1749L24.1626 21.1746L24.1626 21.1745L20.8721 19.7613L20.8721 19.7614L20.872 19.7614L19.1165 20.934C19.116 20.9344 19.1156 20.9347 19.1151 20.935C18.9535 21.0437 18.7664 21.1087 18.5722 21.1234C18.3774 21.1382 18.1822 21.102 18.0056 21.0184L18.0025 21.0169C16.6911 20.3861 15.6321 19.3297 14.9979 18.02L14.9967 18.0177L14.9967 18.0177C14.9137 17.8441 14.8765 17.6521 14.8888 17.4601C14.9011 17.268 14.9625 17.0824 15.067 16.9208L15.0693 16.9174L15.0693 16.9174L16.2397 15.1372L16.2387 15.1347L16.2387 15.1347L14.8282 11.8436ZM24.1642 21.1696L24.1642 21.1698L24.1642 21.1696ZM14.5315 10.7432C14.7804 10.7011 15.1978 10.677 15.5504 10.9744C15.6849 11.0879 15.7915 11.2322 15.8604 11.3962L17.2716 14.6891C17.2718 14.6895 17.272 14.69 17.2722 14.6905C17.3453 14.8593 17.3758 15.0435 17.3612 15.2269C17.3465 15.4109 17.2867 15.5884 17.1873 15.7438L17.1835 15.7495L17.1835 15.7495L16.0115 17.5321C16.5346 18.6109 17.407 19.4812 18.487 20.0016L18.4893 20.0001L18.4893 20.0001L20.2458 18.8268C20.4016 18.7215 20.5815 18.6573 20.7689 18.6401C20.9562 18.6228 21.1448 18.6531 21.3173 18.7281C21.318 18.7284 21.3187 18.7287 21.3194 18.729L24.6042 20.1398C24.829 20.2343 25.0168 20.3997 25.1389 20.6108C25.2616 20.823 25.3112 21.0696 25.28 21.3128C25.1584 22.2625 24.6948 23.1353 23.9761 23.7679C23.4234 24.2544 22.7491 24.5732 22.0316 24.6947C21.7017 24.7505 21.3741 24.7542 21.0774 24.7455C18.5001 24.6697 16.0443 23.6128 14.2158 21.7843C12.4565 20.025 11.4115 17.685 11.2674 15.2148C11.2452 14.8347 11.2322 14.4013 11.3054 13.9685C11.4269 13.251 11.7457 12.5766 12.2322 12.024C12.83 11.3448 13.6424 10.8935 14.5315 10.7432Z" fill="#414651"/>
</svg>
