<svg width="28" height="28" viewBox="0 0 28 28" fill="none" xmlns="http://www.w3.org/2000/svg">
<path d="M14.0455 3.19495H8.03107C5.88103 3.19495 4.80601 3.19495 3.9848 3.61337C3.26245 3.98143 2.67516 4.56872 2.3071 5.29108C1.88867 6.11228 1.88867 7.1873 1.88867 9.33734V20.0865C1.88867 22.2366 1.88867 23.3116 2.3071 24.1328C2.67516 24.8552 3.26245 25.4424 3.9848 25.8105C4.80601 26.2289 5.88103 26.2289 8.03107 26.2289H19.804C20.994 26.2289 21.5891 26.2289 22.0773 26.0981C23.4021 25.7431 24.4369 24.7083 24.7918 23.3835C24.9227 22.8953 24.9227 22.3003 24.9227 21.1103M22.3633 9.59328V1.91528M18.5243 5.75428H26.2023M11.4862 10.2331C11.4862 11.6466 10.3403 12.7924 8.92683 12.7924C7.51335 12.7924 6.3675 11.6466 6.3675 10.2331C6.3675 8.81963 7.51335 7.67378 8.92683 7.67378C10.3403 7.67378 11.4862 8.81963 11.4862 10.2331ZM17.2319 14.6072L6.40736 24.4477C5.79851 25.0012 5.49409 25.2779 5.46716 25.5177C5.44382 25.7255 5.5235 25.9316 5.68056 26.0697C5.86175 26.2289 6.27317 26.2289 7.096 26.2289H19.1078C20.9495 26.2289 21.8703 26.2289 22.5936 25.9195C23.5015 25.5311 24.2249 24.8078 24.6133 23.8998C24.9227 23.1766 24.9227 22.2558 24.9227 20.4141C24.9227 19.7945 24.9227 19.4846 24.8549 19.1961C24.7698 18.8335 24.6065 18.4938 24.3766 18.2008C24.1936 17.9677 23.9516 17.7741 23.4678 17.387L19.8882 14.5234C19.404 14.136 19.1618 13.9423 18.8952 13.8739C18.6601 13.8136 18.4128 13.8214 18.1821 13.8964C17.9203 13.9814 17.6908 14.19 17.2319 14.6072Z" stroke="#717680" stroke-width="2.04747" stroke-linecap="round" stroke-linejoin="round"/>
</svg>
