<svg width="24" height="24" viewBox="0 0 24 24" fill="none" xmlns="http://www.w3.org/2000/svg">
<path d="M8.74955 2.7875C10.6434 2.7375 12.4846 2.7375 14.3785 2.7875C17.4992 2.86949 19.2188 2.91529 20.5132 4.25625C21.8095 5.61123 21.8451 7.34844 21.9097 10.5014C21.9299 11.5083 21.93 12.4866 21.9097 13.4936C21.8451 16.6461 21.8093 18.3819 20.5162 19.7348C19.2198 21.0787 17.5002 21.1244 14.3794 21.2064C13.433 21.2314 12.4988 21.2445 11.565 21.2445C10.6311 21.2445 9.69691 21.2314 8.75053 21.2064C5.62991 21.1245 3.91017 21.0783 2.61577 19.7377C1.31943 18.3827 1.28288 16.6454 1.2183 13.4926C1.19806 12.4856 1.19807 11.5073 1.2183 10.5004C1.28288 7.34739 1.31935 5.6112 2.61284 4.2582C3.90919 2.91445 5.6288 2.86949 8.74955 2.7875ZM14.3414 4.28554C12.4725 4.23555 10.6555 4.23554 8.78569 4.28554C5.85803 4.36253 4.52204 4.3972 3.63627 5.31582C2.75146 6.24182 2.72338 7.58664 2.66362 10.5316C2.64338 11.5165 2.64338 12.4745 2.66362 13.4603C2.72337 16.4053 2.75151 17.7502 3.6392 18.6771C4.52303 19.593 5.85872 19.6294 8.78666 19.7064C10.6555 19.7564 12.4725 19.7564 14.3423 19.7064C17.2705 19.6294 18.6069 19.5942 19.4927 18.6752C20.3773 17.7492 20.4046 16.405 20.4644 13.4603C20.4846 12.4755 20.4846 11.5175 20.4644 10.5316C20.4046 7.58664 20.3775 6.24086 19.4898 5.31386C18.6059 4.39792 17.2695 4.36254 14.3414 4.28554ZM6.12358 8.11074C6.32695 7.75474 6.77068 7.63509 7.11381 7.84609L9.94877 9.58632C11.3676 10.4533 11.7615 10.4533 13.1822 9.58632L16.0162 7.84707C16.3603 7.63607 16.804 7.75471 17.0064 8.11171C17.2096 8.46868 17.0955 8.92813 16.7515 9.13808L13.9165 10.8783C12.971 11.4563 12.2676 11.7445 11.564 11.7445C10.8615 11.7444 10.1588 11.4552 9.2144 10.8783L6.37748 9.13711C6.03479 8.92601 5.92045 8.46654 6.12358 8.11074Z" fill="#161616"/>
</svg>
