<svg width="23" height="26" viewBox="0 0 23 26" fill="none" xmlns="http://www.w3.org/2000/svg">
<path fill-rule="evenodd" clip-rule="evenodd" d="M0.585787 0.874849C0.960859 0.499777 1.46957 0.289062 2 0.289062H14C14.2652 0.289062 14.5196 0.394419 14.7071 0.581956L21.7071 7.58196C21.8946 7.76949 22 8.02385 22 8.28906V13.2891C22 13.8413 21.5523 14.2891 21 14.2891C20.4477 14.2891 20 13.8413 20 13.2891V8.70328L13.5858 2.28906L2 2.28906L2 13.2891C2 13.8413 1.55228 14.2891 1 14.2891C0.447715 14.2891 0 13.8413 0 13.2891V2.28906C0 1.75863 0.210714 1.24992 0.585787 0.874849Z" fill="#414651"/>
<path fill-rule="evenodd" clip-rule="evenodd" d="M14 0.289062C14.5523 0.289062 15 0.736778 15 1.28906V7.28906H21C21.5523 7.28906 22 7.73678 22 8.28906C22 8.84135 21.5523 9.28906 21 9.28906H14C13.4477 9.28906 13 8.84135 13 8.28906V1.28906C13 0.736778 13.4477 0.289062 14 0.289062Z" fill="#414651"/>
<path fill-rule="evenodd" clip-rule="evenodd" d="M0 18.2891C0 17.7368 0.447715 17.2891 1 17.2891H3C3.79565 17.2891 4.55871 17.6051 5.12132 18.1677C5.68393 18.7304 6 19.4934 6 20.2891C6 21.0847 5.68393 21.8478 5.12132 22.4104C4.55871 22.973 3.79565 23.2891 3 23.2891H2V24.2891C2 24.8413 1.55228 25.2891 1 25.2891C0.447715 25.2891 0 24.8413 0 24.2891V18.2891ZM2 21.2891H3C3.26522 21.2891 3.51957 21.1837 3.70711 20.9962C3.89464 20.8086 4 20.5543 4 20.2891C4 20.0238 3.89464 19.7695 3.70711 19.582C3.51957 19.3944 3.26522 19.2891 3 19.2891H2V21.2891Z" fill="#414651"/>
<path fill-rule="evenodd" clip-rule="evenodd" d="M17.5 18.2891C17.5 17.7368 17.9477 17.2891 18.5 17.2891H22C22.5523 17.2891 23 17.7368 23 18.2891C23 18.8413 22.5523 19.2891 22 19.2891H19.5V24.2891C19.5 24.8413 19.0523 25.2891 18.5 25.2891C17.9477 25.2891 17.5 24.8413 17.5 24.2891V18.2891Z" fill="#414651"/>
<path fill-rule="evenodd" clip-rule="evenodd" d="M17.5 21.7891C17.5 21.2368 17.9477 20.7891 18.5 20.7891H21.5C22.0523 20.7891 22.5 21.2368 22.5 21.7891C22.5 22.3413 22.0523 22.7891 21.5 22.7891H18.5C17.9477 22.7891 17.5 22.3413 17.5 21.7891Z" fill="#414651"/>
<path fill-rule="evenodd" clip-rule="evenodd" d="M8.25 18.2891C8.25 17.7368 8.69771 17.2891 9.25 17.2891H11C12.0609 17.2891 13.0783 17.7105 13.8284 18.4606C14.5786 19.2108 15 20.2282 15 21.2891C15 22.3499 14.5786 23.3673 13.8284 24.1175C13.0783 24.8676 12.0609 25.2891 11 25.2891H9.25C8.69771 25.2891 8.25 24.8413 8.25 24.2891V18.2891ZM10.25 19.2891V23.2891H11C11.5304 23.2891 12.0391 23.0784 12.4142 22.7033C12.7893 22.3282 13 21.8195 13 21.2891C13 20.7586 12.7893 20.2499 12.4142 19.8748C12.0391 19.4998 11.5304 19.2891 11 19.2891H10.25Z" fill="#414651"/>
</svg>
