<svg width="36" height="36" viewBox="0 0 36 36" fill="none" xmlns="http://www.w3.org/2000/svg">
<rect width="36" height="36" rx="18" fill="#E1EDFB"/>
<path d="M20.2856 12.75C21.0182 12.8929 21.6914 13.2512 22.2192 13.779C22.7469 14.3067 23.1052 14.9799 23.2481 15.7125M20.2856 9.75C21.8076 9.91908 23.2268 10.6006 24.3103 11.6828C25.3938 12.7649 26.0771 14.1833 26.2481 15.705M25.4981 21.69V23.94C25.499 24.1489 25.4562 24.3556 25.3725 24.547C25.2888 24.7384 25.1661 24.9102 25.0122 25.0514C24.8583 25.1926 24.6765 25.3001 24.4787 25.367C24.2808 25.4339 24.0711 25.4588 23.8631 25.44C21.5552 25.1892 19.3384 24.4006 17.3906 23.1375C15.5785 21.986 14.0421 20.4496 12.8906 18.6375C11.6231 16.6809 10.8343 14.4532 10.5881 12.135C10.5694 11.9276 10.594 11.7186 10.6605 11.5212C10.727 11.3239 10.8338 11.1425 10.9742 10.9887C11.1146 10.8349 11.2855 10.712 11.476 10.6279C11.6665 10.5438 11.8724 10.5002 12.0806 10.5H14.3306C14.6946 10.4964 15.0475 10.6253 15.3234 10.8626C15.5994 11.1 15.7797 11.4296 15.8306 11.79C15.9256 12.51 16.1017 13.217 16.3556 13.8975C16.4565 14.1659 16.4784 14.4577 16.4185 14.7382C16.3587 15.0186 16.2198 15.2761 16.0181 15.48L15.0656 16.4325C16.1333 18.3102 17.688 19.8648 19.5656 20.9325L20.5181 19.98C20.722 19.7784 20.9795 19.6394 21.26 19.5796C21.5404 19.5198 21.8322 19.5416 22.1006 19.6425C22.7811 19.8964 23.4881 20.0725 24.2081 20.1675C24.5724 20.2189 24.9052 20.4024 25.143 20.6831C25.3809 20.9638 25.5072 21.3222 25.4981 21.69Z" stroke="#1E1E1E" stroke-linecap="round" stroke-linejoin="round"/>
</svg>
