<svg width="20" height="18" viewBox="0 0 20 18" fill="none" xmlns="http://www.w3.org/2000/svg">
<path d="M16.1802 12.0943C19.4727 7.9193 18.5835 3.7793 16.2185 2.32847C13.9835 0.957634 12.0327 1.51013 10.861 2.39013L9.99933 3.03513M16.1802 12.0943C15.3902 13.0968 14.3593 14.1001 13.0493 15.0693C11.7618 16.0235 11.1177 16.5001 9.99933 16.5001C8.881 16.5001 8.23767 16.0235 6.94933 15.0693C0.184333 10.0626 0.847667 4.12763 3.78017 2.32847C6.01517 0.957634 7.966 1.51013 9.13767 2.39013L9.99933 3.03513M16.1802 12.0943L11.576 6.87097C11.4846 6.76762 11.3595 6.70002 11.2229 6.68018C11.0864 6.66035 10.9472 6.68956 10.8302 6.76263L9.0085 7.90097C8.65126 8.12697 8.22046 8.20606 7.80624 8.1217C7.39202 8.03734 7.02647 7.79605 6.78608 7.44833C6.5457 7.10061 6.44909 6.6734 6.51648 6.25608C6.58388 5.83876 6.81004 5.46368 7.14767 5.2093L9.99933 3.03513" stroke="#717680" stroke-width="1.5" stroke-linecap="round" stroke-linejoin="round"/>
</svg>
