<svg width="24" height="24" viewBox="0 0 24 24" fill="none" xmlns="http://www.w3.org/2000/svg">
<path fill-rule="evenodd" clip-rule="evenodd" d="M12 3.75C7.44365 3.75 3.75 7.44365 3.75 12C3.75 16.5563 7.44365 20.25 12 20.25C16.5563 20.25 20.25 16.5563 20.25 12C20.25 7.44365 16.5563 3.75 12 3.75ZM2.25 12C2.25 6.61522 6.61522 2.25 12 2.25C17.3848 2.25 21.75 6.61522 21.75 12C21.75 17.3848 17.3848 21.75 12 21.75C6.61522 21.75 2.25 17.3848 2.25 12Z" fill="#69A3E9"/>
<path fill-rule="evenodd" clip-rule="evenodd" d="M12 8.25C10.3431 8.25 9 9.59315 9 11.25C9 12.9069 10.3431 14.25 12 14.25C13.6569 14.25 15 12.9069 15 11.25C15 9.59315 13.6569 8.25 12 8.25ZM7.5 11.25C7.5 8.76472 9.51472 6.75 12 6.75C14.4853 6.75 16.5 8.76472 16.5 11.25C16.5 13.7353 14.4853 15.75 12 15.75C9.51472 15.75 7.5 13.7353 7.5 11.25Z" fill="#69A3E9"/>
<path fill-rule="evenodd" clip-rule="evenodd" d="M12 15.75C10.892 15.75 9.8056 16.0562 8.86128 16.6359C7.91697 17.2155 7.15159 18.0453 6.65 19.0333C6.46249 19.4026 6.01107 19.55 5.64173 19.3625C5.27239 19.175 5.12499 18.7236 5.3125 18.3542C5.93949 17.1193 6.89621 16.082 8.07661 15.3575C9.25701 14.6329 10.615 14.25 12 14.25C13.385 14.25 14.743 14.6329 15.9234 15.3575C17.1038 16.082 18.0605 17.1193 18.6875 18.3542C18.875 18.7236 18.7276 19.175 18.3583 19.3625C17.9889 19.55 17.5375 19.4026 17.35 19.0333C16.8484 18.0453 16.083 17.2155 15.1387 16.6359C14.1944 16.0562 13.108 15.75 12 15.75Z" fill="#69A3E9"/>
</svg>
