<svg width="20" height="14" viewBox="0 0 20 14" fill="none" xmlns="http://www.w3.org/2000/svg">
<path d="M9.16074 9.33745C9.9984 8.77979 10.6344 7.96736 10.9746 7.0203C11.3148 6.07325 11.3412 5.04185 11.0499 4.07862C10.7586 3.1154 10.165 2.27149 9.35702 1.67169C8.54899 1.07189 7.5694 0.748047 6.56309 0.748047C5.55678 0.748047 4.57718 1.07189 3.76916 1.67169C2.96114 2.27149 2.36759 3.1154 2.07628 4.07862C1.78498 5.04185 1.81139 6.07325 2.1516 7.0203C2.49182 7.96736 3.12777 8.77979 3.96543 9.33745C2.45019 9.89591 1.15614 10.9293 0.276369 12.2835C0.230132 12.3523 0.198015 12.4295 0.181886 12.5107C0.165757 12.592 0.165938 12.6756 0.182417 12.7568C0.198897 12.838 0.231347 12.915 0.277881 12.9836C0.324415 13.0521 0.384105 13.1107 0.453481 13.1559C0.522857 13.2012 0.600535 13.2322 0.682001 13.2472C0.763466 13.2621 0.847094 13.2607 0.928023 13.2431C1.00895 13.2255 1.08557 13.1919 1.15341 13.1444C1.22126 13.0969 1.27899 13.0364 1.32324 12.9664C1.89074 12.0935 2.66727 11.3763 3.58234 10.8798C4.4974 10.3833 5.522 10.1232 6.56309 10.1232C7.60418 10.1232 8.62878 10.3833 9.54384 10.8798C10.4589 11.3763 11.2354 12.0935 11.8029 12.9664C11.8946 13.1026 12.0362 13.1973 12.1971 13.23C12.3581 13.2626 12.5254 13.2307 12.6629 13.1409C12.8005 13.0512 12.8972 12.911 12.9321 12.7506C12.9671 12.5901 12.9375 12.4224 12.8498 12.2835C11.97 10.9293 10.676 9.89591 9.16074 9.33745ZM3.12559 5.43745C3.12559 4.75758 3.32719 4.09297 3.70491 3.52768C4.08263 2.96238 4.61949 2.52179 5.24761 2.26161C5.87573 2.00144 6.5669 1.93336 7.23371 2.066C7.90052 2.19864 8.51303 2.52603 8.99377 3.00677C9.47451 3.48751 9.8019 4.10002 9.93454 4.76683C10.0672 5.43363 9.9991 6.1248 9.73892 6.75292C9.47875 7.38104 9.03815 7.91791 8.47286 8.29562C7.90757 8.67334 7.24296 8.87495 6.56309 8.87495C5.65172 8.87391 4.77798 8.51142 4.13355 7.86699C3.48912 7.22255 3.12662 6.34881 3.12559 5.43745ZM19.5428 13.1484C19.4039 13.2389 19.2348 13.2706 19.0727 13.2365C18.9105 13.2023 18.7685 13.1052 18.6779 12.9664C18.1111 12.093 17.3347 11.3755 16.4194 10.8791C15.5042 10.3828 14.4792 10.1236 13.4381 10.1249C13.2723 10.1249 13.1134 10.0591 12.9961 9.94189C12.8789 9.82468 12.8131 9.66571 12.8131 9.49995C12.8131 9.33419 12.8789 9.17522 12.9961 9.05801C13.1134 8.9408 13.2723 8.87495 13.4381 8.87495C13.9443 8.87447 14.4442 8.76219 14.902 8.54613C15.3598 8.33007 15.7642 8.01557 16.0864 7.62508C16.4086 7.2346 16.6405 6.77779 16.7656 6.28727C16.8908 5.79676 16.9061 5.28466 16.8104 4.78756C16.7146 4.29047 16.5103 3.82064 16.212 3.41166C15.9137 3.00268 15.5287 2.66464 15.0846 2.42169C14.6405 2.17874 14.1482 2.03688 13.6429 2.00625C13.1376 1.97562 12.6317 2.05696 12.1615 2.24448C12.0849 2.27762 12.0023 2.29506 11.9188 2.29577C11.8353 2.29647 11.7525 2.28043 11.6753 2.24859C11.598 2.21675 11.528 2.16975 11.4692 2.11038C11.4105 2.05101 11.3642 1.98046 11.3332 1.90291C11.3022 1.82536 11.287 1.74238 11.2886 1.65887C11.2902 1.57536 11.3085 1.49302 11.3425 1.41671C11.3765 1.3404 11.4254 1.27167 11.4863 1.21458C11.5473 1.15749 11.6191 1.1132 11.6975 1.08432C12.7736 0.655145 13.9706 0.639701 15.0574 1.04097C16.1443 1.44224 17.044 2.23179 17.5831 3.2573C18.1222 4.28282 18.2623 5.47164 17.9766 6.59442C17.6909 7.71719 16.9995 8.69437 16.0357 9.33745C17.551 9.89591 18.845 10.9293 19.7248 12.2835C19.8153 12.4224 19.847 12.5915 19.8129 12.7537C19.7787 12.9158 19.6816 13.0578 19.5428 13.1484Z" fill="#717680"/>
</svg>
