<svg width="12" height="10" viewBox="0 0 12 10" fill="none" xmlns="http://www.w3.org/2000/svg">
<path fill-rule="evenodd" clip-rule="evenodd" d="M12 5C12 5.27614 11.7761 5.5 11.5 5.5L0.5 5.5C0.223858 5.5 -2.30627e-07 5.27614 -2.18557e-07 5C-2.06486e-07 4.72386 0.223858 4.5 0.5 4.5L11.5 4.5C11.7761 4.5 12 4.72386 12 5Z" fill="#717680"/>
<path fill-rule="evenodd" clip-rule="evenodd" d="M5.35355 0.146446C5.54882 0.341708 5.54882 0.658291 5.35355 0.853553L1.20711 5L5.35355 9.14644C5.54881 9.34171 5.54881 9.65829 5.35355 9.85355C5.15829 10.0488 4.84171 10.0488 4.64645 9.85355L0.146446 5.35355C-0.0488169 5.15829 -0.0488169 4.84171 0.146446 4.64645L4.64645 0.146446C4.84171 -0.0488159 5.15829 -0.0488158 5.35355 0.146446Z" fill="#717680"/>
</svg>
